<?xml version="1.0" encoding="UTF-8" standalone="no"?>
<!DOCTYPE svg PUBLIC "-//W3C//DTD SVG 1.1//EN" "http://www.w3.org/Graphics/SVG/1.1/DTD/svg11.dtd">
<svg version="1.1" xmlns="http://www.w3.org/2000/svg" xmlns:xlink="http://www.w3.org/1999/xlink" preserveAspectRatio="xMidYMid meet" viewBox="0 0 300 300" width="300" height="300"><defs><path d="M269.14 8.95C279.5 8.95 287.89 17.34 287.89 27.7C287.89 35.53 287.89 40.26 287.89 48.09C287.89 58.45 279.5 66.84 269.14 66.84C217.74 66.84 82.26 66.84 30.86 66.84C20.5 66.84 12.11 58.45 12.11 48.09C12.11 40.26 12.11 35.53 12.11 27.7C12.11 17.34 20.5 8.95 30.86 8.95C82.26 8.95 217.74 8.95 269.14 8.95Z" id="a2KjFXPLuK"></path><path d="M269.14 236.12C279.5 236.12 287.89 244.51 287.89 254.87C287.89 262.7 287.89 267.43 287.89 275.26C287.89 285.62 279.5 294.01 269.14 294.01C217.74 294.01 82.26 294.01 30.86 294.01C20.5 294.01 12.11 285.62 12.11 275.26C12.11 267.43 12.11 262.7 12.11 254.87C12.11 244.51 20.5 236.12 30.86 236.12C82.26 236.12 217.74 236.12 269.14 236.12Z" id="b27VJbxEUK"></path><path d="M177.8 23.49C194.13 23.49 207.37 36.73 207.37 53.06C207.37 96.62 207.37 197.72 207.37 241.28C207.37 257.62 194.13 270.86 177.8 270.86C160.76 270.86 139.24 270.86 122.2 270.86C105.87 270.86 92.63 257.62 92.63 241.28C92.63 197.72 92.63 96.62 92.63 53.06C92.63 36.73 105.87 23.49 122.2 23.49C139.24 23.49 160.76 23.49 177.8 23.49Z" id="b2kQyYj7LL"></path><path d="M259.1 19.47C267.16 19.47 273.68 26 273.68 34.06C273.68 38.51 273.68 37.28 273.68 41.73C273.68 49.79 267.16 56.32 259.1 56.32C212.54 56.32 87.46 56.32 40.9 56.32C32.84 56.32 26.32 49.79 26.32 41.73C26.32 37.28 26.32 38.51 26.32 34.06C26.32 26 32.84 19.47 40.9 19.47C87.46 19.47 212.54 19.47 259.1 19.47Z" id="c4tnHUnWIq"></path><path d="M259.1 246.64C267.16 246.64 273.68 253.17 273.68 261.23C273.68 265.68 273.68 264.45 273.68 268.9C273.68 276.96 267.16 283.49 259.1 283.49C212.54 283.49 87.46 283.49 40.9 283.49C32.84 283.49 26.32 276.96 26.32 268.9C26.32 264.45 26.32 265.68 26.32 261.23C26.32 253.17 32.84 246.64 40.9 246.64C87.46 246.64 212.54 246.64 259.1 246.64Z" id="aJgqMrHvo"></path><path d="M171.78 37.89C182.13 37.89 190.53 46.29 190.53 56.64C190.53 98.33 190.53 204.63 190.53 246.32C190.53 256.67 182.13 265.07 171.78 265.07C159.32 265.07 140.68 265.07 128.22 265.07C117.87 265.07 109.47 256.67 109.47 246.32C109.47 204.63 109.47 98.33 109.47 56.64C109.47 46.29 117.87 37.89 128.22 37.89C140.68 37.89 159.32 37.89 171.78 37.89Z" id="f1ekfdC6sg"></path><path d="M109.47 95.86L190.53 95.86L190.53 270.86L109.47 270.86L109.47 95.86Z" id="d2tObKtupH"></path></defs><g><g><g><use xlink:href="#a2KjFXPLuK" opacity="1" fill="#000000" fill-opacity="1"></use></g><g><use xlink:href="#b27VJbxEUK" opacity="1" fill="#000000" fill-opacity="1"></use></g><g><use xlink:href="#b2kQyYj7LL" opacity="1" fill="#000000" fill-opacity="1"></use></g><g><use xlink:href="#c4tnHUnWIq" opacity="1" fill="#ffffff" fill-opacity="1"></use></g><g><use xlink:href="#aJgqMrHvo" opacity="1" fill="#4700d5" fill-opacity="1"></use></g><g><use xlink:href="#f1ekfdC6sg" opacity="1" fill="#ffffff" fill-opacity="1"></use></g><g><use xlink:href="#d2tObKtupH" opacity="1" fill="#4700d5" fill-opacity="1"></use></g></g></g></svg>